<svg width="91" height="33" viewBox="0 0 91 33" fill="none" xmlns="http://www.w3.org/2000/svg">
<path fillRule="evenodd" clipRule="evenodd" d="M5.15418 28.5468L3.28278 29.6863C1.84003 30.5541 0 29.5191 0 27.8359V5.17001C0 3.47634 1.84003 2.44133 3.28278 3.31952L9.53471 7.11459C9.25243 7.06231 8.9597 7.03095 8.65651 7.03095C5.68737 7.03095 3.27233 9.37281 3.12596 12.3001H5.48873C5.83374 12.3001 6.17874 12.5824 6.19965 12.9379C6.22056 13.3247 5.90692 13.6488 5.52009 13.6488H3.12596V14.9661H5.52009C5.90692 14.9661 6.22056 15.2797 6.19965 15.677C6.17874 16.0429 5.85465 16.3147 5.48873 16.3147H3.12596V17.6216H5.48873C5.83374 17.6216 6.17874 17.9143 6.19965 18.2698C6.22056 18.6566 5.90692 18.9807 5.52009 18.9807H3.12596C3.27233 21.908 5.68737 24.2394 8.65651 24.2394C8.75061 24.2394 8.8447 24.229 8.94925 24.229L7.83059 25.4313V26.9263L7.7365 26.9786H6.79557C5.91738 26.9786 5.196 27.679 5.15418 28.5468ZM21.9654 18.3534L9.48244 25.9226V24.1767C12.0543 23.7899 14.0512 21.6258 14.1766 18.9807H11.7825C11.3957 18.9807 11.0925 18.6566 11.1029 18.2698C11.1238 17.9143 11.4688 17.6216 11.8243 17.6216H14.1871V16.3147H11.7825C11.3957 16.3147 11.0925 15.9907 11.1029 15.6038C11.1238 15.2379 11.4584 14.9661 11.8243 14.9661H14.1871V13.6488H11.8243C11.4688 13.6488 11.1238 13.3665 11.1029 13.0111C11.0925 12.6242 11.3957 12.3001 11.7825 12.3001H14.1766C14.1243 11.1606 13.7271 10.1151 13.0893 9.25781L21.9654 14.6524C23.3559 15.4888 23.3559 17.5066 21.9654 18.3534Z" fill="url(#paint0_linear_1_2)"/>
<path style="mix-blend-mode:multiply" fillRule="evenodd" clipRule="evenodd" d="M8.94925 24.229L7.83059 25.4313V26.9263L7.7365 26.9786H6.79557C5.91738 26.9786 5.196 27.679 5.15418 28.5468L3.28278 29.6863C1.84003 30.5541 0 29.5191 0 27.8359V5.17001C0 3.47634 1.84003 2.44133 3.28278 3.31952L9.53471 7.11459C9.25243 7.06231 8.9597 7.03095 8.65651 7.03095C5.68737 7.03095 3.27233 9.37281 3.12596 12.3001H5.48873C5.83374 12.3001 6.17874 12.5824 6.19965 12.9379C6.22056 13.3247 5.90692 13.6488 5.52009 13.6488H3.12596V14.9661H5.52009C5.90692 14.9661 6.22056 15.2797 6.19965 15.677C6.17874 16.0429 5.85465 16.3147 5.48873 16.3147H3.12596V17.6216H5.48873C5.83374 17.6216 6.17874 17.9143 6.19965 18.2698C6.22056 18.6566 5.90692 18.9807 5.52009 18.9807H3.12596C3.27233 21.908 5.68737 24.2394 8.65651 24.2394C8.75061 24.2394 8.8447 24.229 8.94925 24.229ZM16.163 21.8662L9.48244 25.9226V24.1767C12.0543 23.7899 14.0512 21.6258 14.1766 18.9807H11.7825C11.3957 18.9807 11.0925 18.6566 11.1029 18.2698C11.1238 17.9143 11.4688 17.6216 11.8243 17.6216H14.1871V16.3147H11.7825C11.3957 16.3147 11.0925 15.9907 11.1029 15.6038C11.1238 15.2379 11.4584 14.9661 11.8243 14.9661H14.1871V13.8788C14.6784 15.0497 15.0966 16.2625 15.4312 17.517C15.8285 19.0225 16.0689 20.4757 16.163 21.8662ZM11.7825 12.3001H13.4552C13.6783 12.7392 13.8874 13.1888 14.0825 13.6488H11.8243C11.4688 13.6488 11.1238 13.3665 11.1029 13.0111C11.0925 12.6242 11.3957 12.3001 11.7825 12.3001Z" fill="url(#paint1_linear_1_2)"/>
<path style="mix-blend-mode:screen" fillRule="evenodd" clipRule="evenodd" d="M3.12596 14.4956V13.6488H5.52009C5.90692 13.6488 6.22056 13.3247 6.19965 12.9379C6.17874 12.5824 5.83374 12.3001 5.48873 12.3001H3.12596C3.27233 9.37281 5.68737 7.03095 8.65651 7.03095C8.9597 7.03095 9.25243 7.06231 9.53471 7.11459L3.28278 3.31952C1.84003 2.44133 0 3.47634 0 5.17001V11.9238C0.920016 12.8542 1.96549 13.7115 3.12596 14.4956ZM6.19965 15.677C6.22056 15.2797 5.90692 14.9661 5.52009 14.9661H3.84734C4.52341 15.3843 5.23085 15.7746 5.96965 16.137C6.10556 16.022 6.1892 15.8547 6.19965 15.677ZM21.9654 14.6524L13.0893 9.25781C13.7271 10.1151 14.1243 11.1606 14.1766 12.3001H11.7825C11.3957 12.3001 11.0925 12.6242 11.1029 13.0111C11.1238 13.3665 11.4688 13.6488 11.8243 13.6488H14.1871V14.9661H11.8243C11.4584 14.9661 11.1238 15.2379 11.1029 15.6038C11.0925 15.9907 11.3957 16.3147 11.7825 16.3147H14.1871V17.6216H11.8243C11.5525 17.6216 11.3016 17.7889 11.1761 18.0189C12.2007 18.2698 13.2566 18.4684 14.3334 18.5939C17.083 18.9284 19.6862 18.803 22.0386 18.3011C23.3454 17.4334 23.3245 15.4784 21.9654 14.6524Z" fill="url(#paint2_linear_1_2)"/>
<path style="mix-blend-mode:screen" fillRule="evenodd" clipRule="evenodd" d="M21.9654 18.3534L9.48244 25.9226V24.1767C12.0543 23.7899 14.0512 21.6258 14.1766 18.9807H11.7825C11.3957 18.9807 11.0925 18.6566 11.1029 18.2698C11.1238 17.9143 11.4688 17.6216 11.8243 17.6216H14.1871V16.3148H11.7825C11.3957 16.3148 11.0925 15.9907 11.1029 15.6038C11.1238 15.2379 11.4584 14.9661 11.8243 14.9661H14.1871V13.6488H11.8243C11.4688 13.6488 11.1238 13.3665 11.1029 13.0111C11.0925 12.6242 11.3957 12.3001 11.7825 12.3001H14.1766C14.1348 11.5056 13.9257 10.7528 13.5911 10.0837C13.8351 10.0559 14.079 10.0315 14.323 10.0106L21.9654 14.6524C23.3559 15.4888 23.3559 17.5066 21.9654 18.3534ZM0 27.8359V19.2943C0.836378 17.7157 1.96549 16.2416 3.3246 14.9661H5.52009C5.90692 14.9661 6.22056 15.2797 6.19965 15.677C6.17874 16.0429 5.85465 16.3148 5.48873 16.3148H3.12596V17.6216H5.48873C5.83374 17.6216 6.17874 17.9143 6.19965 18.2698C6.22056 18.6566 5.90692 18.9807 5.52009 18.9807H3.12596C3.27233 21.908 5.68737 24.2394 8.65651 24.2394C8.75061 24.2394 8.8447 24.229 8.94925 24.229L7.83059 25.4313V26.9263L7.7365 26.9786H6.79557C5.91738 26.9786 5.196 27.679 5.15418 28.5468L3.28278 29.6863C1.84003 30.5541 0 29.5191 0 27.8359ZM4.86145 13.6488C5.27964 13.3352 5.71177 13.0389 6.15783 12.7601C6.17874 12.8124 6.19965 12.8751 6.19965 12.9379C6.22056 13.3247 5.90692 13.6488 5.52009 13.6488H4.86145Z" fill="url(#paint3_linear_1_2)"/>
<path d="M30.6882 26V8.72H37.9842C38.1522 8.72 38.3762 8.728 38.6562 8.744C38.9442 8.752 39.2002 8.776 39.4242 8.816C40.4562 8.976 41.3002 9.316 41.9562 9.836C42.6202 10.356 43.1082 11.012 43.4202 11.804C43.7322 12.588 43.8882 13.464 43.8882 14.432C43.8882 15.4 43.7282 16.28 43.4082 17.072C43.0962 17.856 42.6082 18.508 41.9442 19.028C41.2882 19.548 40.4482 19.888 39.4242 20.048C39.2002 20.08 38.9442 20.104 38.6562 20.12C38.3682 20.136 38.1442 20.144 37.9842 20.144H33.9522V26H30.6882ZM33.9522 17.096H37.8402C38.0082 17.096 38.1922 17.088 38.3922 17.072C38.5922 17.056 38.7762 17.024 38.9442 16.976C39.3842 16.856 39.7242 16.656 39.9642 16.376C40.2042 16.088 40.3682 15.772 40.4562 15.428C40.5522 15.076 40.6002 14.744 40.6002 14.432C40.6002 14.12 40.5522 13.792 40.4562 13.448C40.3682 13.096 40.2042 12.78 39.9642 12.5C39.7242 12.212 39.3842 12.008 38.9442 11.888C38.7762 11.84 38.5922 11.808 38.3922 11.792C38.1922 11.776 38.0082 11.768 37.8402 11.768H33.9522V17.096ZM50.6952 26.36C49.3912 26.36 48.2472 26.068 47.2632 25.484C46.2792 24.9 45.5112 24.096 44.9592 23.072C44.4152 22.04 44.1432 20.856 44.1432 19.52C44.1432 18.168 44.4232 16.98 44.9832 15.956C45.5432 14.924 46.3152 14.12 47.2992 13.544C48.2832 12.968 49.4152 12.68 50.6952 12.68C51.9992 12.68 53.1432 12.972 54.1272 13.556C55.1192 14.14 55.8912 14.948 56.4432 15.98C56.9952 17.004 57.2712 18.184 57.2712 19.52C57.2712 20.864 56.9912 22.052 56.4312 23.084C55.8792 24.108 55.1072 24.912 54.1152 25.496C53.1312 26.072 51.9912 26.36 50.6952 26.36ZM50.6952 23.312C51.7432 23.312 52.5232 22.96 53.0352 22.256C53.5552 21.544 53.8152 20.632 53.8152 19.52C53.8152 18.368 53.5512 17.448 53.0232 16.76C52.5032 16.072 51.7272 15.728 50.6952 15.728C49.9832 15.728 49.3992 15.888 48.9432 16.208C48.4872 16.528 48.1472 16.972 47.9232 17.54C47.7072 18.108 47.5992 18.768 47.5992 19.52C47.5992 20.68 47.8592 21.604 48.3792 22.292C48.9072 22.972 49.6792 23.312 50.6952 23.312ZM63.9661 26.36C62.7741 26.36 61.7301 26.06 60.8341 25.46C59.9381 24.86 59.2381 24.044 58.7341 23.012C58.2381 21.98 57.9901 20.816 57.9901 19.52C57.9901 18.2 58.2421 17.028 58.7461 16.004C59.2581 14.972 59.9741 14.16 60.8941 13.568C61.8141 12.976 62.8941 12.68 64.1341 12.68C65.3661 12.68 66.4021 12.98 67.2421 13.58C68.0821 14.18 68.7181 14.996 69.1501 16.028C69.5821 17.06 69.7981 18.224 69.7981 19.52C69.7981 20.816 69.5781 21.98 69.1381 23.012C68.7061 24.044 68.0581 24.86 67.1941 25.46C66.3301 26.06 65.2541 26.36 63.9661 26.36ZM64.4941 23.456C65.2221 23.456 65.8021 23.292 66.2341 22.964C66.6741 22.636 66.9901 22.176 67.1821 21.584C67.3741 20.992 67.4701 20.304 67.4701 19.52C67.4701 18.736 67.3741 18.048 67.1821 17.456C66.9901 16.864 66.6821 16.404 66.2581 16.076C65.8421 15.748 65.2941 15.584 64.6141 15.584C63.8861 15.584 63.2861 15.764 62.8141 16.124C62.3501 16.476 62.0061 16.952 61.7821 17.552C61.5581 18.144 61.4461 18.8 61.4461 19.52C61.4461 20.248 61.5541 20.912 61.7701 21.512C61.9861 22.104 62.3181 22.576 62.7661 22.928C63.2141 23.28 63.7901 23.456 64.4941 23.456ZM67.4701 26V17.12H67.0621V8.72H70.3501V26H67.4701ZM72.7501 26V8.36H76.0141V26H72.7501ZM80.0677 31.76L82.5637 24.896L82.6117 26.912L76.9717 13.04H80.3557L84.1477 22.856H83.3797L87.1477 13.04H90.4117L83.0917 31.76H80.0677Z" fill="white"/>
<defs>
<linearGradient id="paint0_linear_1_2" x1="16.5285" y1="-7.8157" x2="45.68" y2="21.3358" gradientUnits="userSpaceOnUse">
<stop stop-color="#FD6D6D"/>
<stop offset="1" stop-color="#F97535"/>
</linearGradient>
<linearGradient id="paint1_linear_1_2" x1="-16.282" y1="4.72432" x2="0.389741" y2="-11.0819" gradientUnits="userSpaceOnUse">
<stop stop-color="white"/>
<stop offset="0.987" stop-color="#D937BE"/>
<stop offset="1" stop-color="#D837BF"/>
</linearGradient>
<linearGradient id="paint2_linear_1_2" x1="14.4576" y1="-4.68138" x2="22.8076" y2="21.4645" gradientUnits="userSpaceOnUse">
<stop stop-color="#FD6D6D"/>
<stop offset="0.5" stop-color="#71381D"/>
<stop offset="1" stop-color="#F97535"/>
</linearGradient>
<linearGradient id="paint3_linear_1_2" x1="6.15281" y1="-7.21361" x2="25.248" y2="16.2306" gradientUnits="userSpaceOnUse">
<stop stop-color="#FD6D6D"/>
<stop offset="1"/>
</linearGradient>
</defs>
</svg>
